<svg width="38" height="56" viewBox="0 0 38 56" fill="none" xmlns="http://www.w3.org/2000/svg">
<path d="M0.4 54C6.48 52.56 5.92 49.28 5.92 43.52V8.96C5.92 6.8 5.6 4.88 8.72 2.72C5.92 3.28 3.04 4.16 0.4 5.28V-3.8147e-06H37.92V14H35.28C35.28 4.48 30.24 2.72 24.24 2.72H18.48C12.48 2.72 12.88 7.52 12.88 12.8V25.76H20.4C21.04 25.76 21.76 25.76 22.4 25.76C24.96 25.76 27.36 25.84 27.84 26.88C27.92 27.04 27.6 23.68 25.44 19.36H30.32V35.28H28.24C28.24 28.88 25.12 26.88 19.28 26.88H12.88V46.48C12.88 49.44 12.96 52.32 8.88 53.28C13.28 53.04 17.28 52.24 20.8 50.72V56H0.4V54Z" fill="white"/>
</svg>
